<mxfile host="Electron" agent="Mozilla/5.0 (Windows NT 10.0; Win64; x64) AppleWebKit/537.36 (KHTML, like Gecko) draw.io/24.7.17 Chrome/128.0.6613.36 Electron/32.0.1 Safari/537.36" version="24.7.17">
  <diagram name="Page-1" id="JeEqrS3aez3Gn6EK-GjZ">
    <mxGraphModel dx="1183" dy="785" grid="1" gridSize="10" guides="1" tooltips="1" connect="1" arrows="1" fold="1" page="1" pageScale="1" pageWidth="850" pageHeight="1100" math="0" shadow="0">
      <root>
        <mxCell id="0" />
        <mxCell id="1" parent="0" />
        <mxCell id="S3Wq46lckrl9Il4yZRkf-36" value="" style="endArrow=none;dashed=1;html=1;strokeWidth=2;rounded=1;entryX=1;entryY=0.5;entryDx=0;entryDy=0;fillColor=#d5e8d4;strokeColor=#82b366;curved=0;" edge="1" parent="1">
          <mxGeometry width="50" height="50" relative="1" as="geometry">
            <mxPoint x="40" y="139.57999999999998" as="sourcePoint" />
            <mxPoint x="800" y="139.57999999999998" as="targetPoint" />
          </mxGeometry>
        </mxCell>
        <mxCell id="S3Wq46lckrl9Il4yZRkf-31" value="" style="endArrow=none;dashed=1;html=1;strokeWidth=2;rounded=1;entryX=1;entryY=0.5;entryDx=0;entryDy=0;fillColor=#e1d5e7;strokeColor=#9673a6;curved=0;" edge="1" parent="1" source="S3Wq46lckrl9Il4yZRkf-32">
          <mxGeometry width="50" height="50" relative="1" as="geometry">
            <mxPoint x="40" y="299.58" as="sourcePoint" />
            <mxPoint x="800" y="299.58" as="targetPoint" />
          </mxGeometry>
        </mxCell>
        <mxCell id="S3Wq46lckrl9Il4yZRkf-29" value="" style="endArrow=none;dashed=1;html=1;strokeWidth=2;rounded=1;entryX=1;entryY=0.5;entryDx=0;entryDy=0;fillColor=#fff2cc;strokeColor=#d6b656;curved=0;" edge="1" parent="1" target="S3Wq46lckrl9Il4yZRkf-25">
          <mxGeometry width="50" height="50" relative="1" as="geometry">
            <mxPoint x="40" y="220" as="sourcePoint" />
            <mxPoint x="790" y="219.58" as="targetPoint" />
          </mxGeometry>
        </mxCell>
        <mxCell id="S3Wq46lckrl9Il4yZRkf-7" value="" style="endArrow=none;dashed=1;html=1;strokeWidth=2;rounded=1;exitX=0;exitY=0.5;exitDx=0;exitDy=0;entryX=1;entryY=0.5;entryDx=0;entryDy=0;fillColor=#dae8fc;strokeColor=#6c8ebf;curved=0;" edge="1" parent="1" source="S3Wq46lckrl9Il4yZRkf-1" target="S3Wq46lckrl9Il4yZRkf-6">
          <mxGeometry width="50" height="50" relative="1" as="geometry">
            <mxPoint x="630" y="110" as="sourcePoint" />
            <mxPoint x="680" y="60" as="targetPoint" />
          </mxGeometry>
        </mxCell>
        <mxCell id="S3Wq46lckrl9Il4yZRkf-3" value="" style="edgeStyle=orthogonalEdgeStyle;rounded=1;orthogonalLoop=1;jettySize=auto;html=1;dashed=1;dashPattern=1 4;curved=0;" edge="1" parent="1" source="S3Wq46lckrl9Il4yZRkf-1" target="S3Wq46lckrl9Il4yZRkf-2">
          <mxGeometry relative="1" as="geometry" />
        </mxCell>
        <mxCell id="S3Wq46lckrl9Il4yZRkf-20" style="edgeStyle=orthogonalEdgeStyle;rounded=1;orthogonalLoop=1;jettySize=auto;html=1;entryX=0;entryY=0.5;entryDx=0;entryDy=0;curved=0;dashed=1;dashPattern=1 4;" edge="1" parent="1" source="S3Wq46lckrl9Il4yZRkf-1" target="S3Wq46lckrl9Il4yZRkf-14">
          <mxGeometry relative="1" as="geometry" />
        </mxCell>
        <mxCell id="S3Wq46lckrl9Il4yZRkf-5" value="" style="edgeStyle=orthogonalEdgeStyle;rounded=1;orthogonalLoop=1;jettySize=auto;html=1;dashed=1;dashPattern=1 4;curved=0;" edge="1" parent="1" source="S3Wq46lckrl9Il4yZRkf-2" target="S3Wq46lckrl9Il4yZRkf-4">
          <mxGeometry relative="1" as="geometry" />
        </mxCell>
        <mxCell id="S3Wq46lckrl9Il4yZRkf-4" value="v3.0" style="ellipse;whiteSpace=wrap;html=1;aspect=fixed;fillColor=#dae8fc;strokeColor=#6c8ebf;fontStyle=1;labelPosition=center;verticalLabelPosition=top;align=center;verticalAlign=bottom;" vertex="1" parent="1">
          <mxGeometry x="440" y="40" width="40" height="40" as="geometry" />
        </mxCell>
        <mxCell id="S3Wq46lckrl9Il4yZRkf-6" value="Master" style="rounded=1;whiteSpace=wrap;html=1;fontStyle=1;fillColor=#dae8fc;strokeColor=#6c8ebf;" vertex="1" parent="1">
          <mxGeometry x="680" y="30" width="120" height="60" as="geometry" />
        </mxCell>
        <mxCell id="S3Wq46lckrl9Il4yZRkf-10" value="" style="edgeStyle=orthogonalEdgeStyle;rounded=1;orthogonalLoop=1;jettySize=auto;html=1;dashed=1;dashPattern=1 4;curved=0;" edge="1" parent="1" source="S3Wq46lckrl9Il4yZRkf-4" target="S3Wq46lckrl9Il4yZRkf-8">
          <mxGeometry relative="1" as="geometry" />
        </mxCell>
        <mxCell id="S3Wq46lckrl9Il4yZRkf-13" value="" style="edgeStyle=orthogonalEdgeStyle;rounded=0;orthogonalLoop=1;jettySize=auto;html=1;" edge="1" parent="1" source="S3Wq46lckrl9Il4yZRkf-8" target="S3Wq46lckrl9Il4yZRkf-12">
          <mxGeometry relative="1" as="geometry" />
        </mxCell>
        <mxCell id="S3Wq46lckrl9Il4yZRkf-34" style="edgeStyle=orthogonalEdgeStyle;rounded=1;orthogonalLoop=1;jettySize=auto;html=1;entryX=0;entryY=0.5;entryDx=0;entryDy=0;exitX=0.5;exitY=1;exitDx=0;exitDy=0;curved=0;dashed=1;dashPattern=1 4;" edge="1" parent="1" source="S3Wq46lckrl9Il4yZRkf-8" target="S3Wq46lckrl9Il4yZRkf-32">
          <mxGeometry relative="1" as="geometry" />
        </mxCell>
        <mxCell id="S3Wq46lckrl9Il4yZRkf-8" value="" style="ellipse;whiteSpace=wrap;html=1;aspect=fixed;fillColor=#d5e8d4;strokeColor=#82b366;verticalAlign=bottom;horizontal=1;labelPosition=center;verticalLabelPosition=top;align=center;fontStyle=1" vertex="1" parent="1">
          <mxGeometry x="480" y="120" width="40" height="40" as="geometry" />
        </mxCell>
        <mxCell id="S3Wq46lckrl9Il4yZRkf-11" value="Develop" style="rounded=1;whiteSpace=wrap;html=1;fontStyle=1;fillColor=#d5e8d4;strokeColor=#82b366;" vertex="1" parent="1">
          <mxGeometry x="680" y="110" width="120" height="60" as="geometry" />
        </mxCell>
        <mxCell id="S3Wq46lckrl9Il4yZRkf-12" value="" style="ellipse;whiteSpace=wrap;html=1;aspect=fixed;fillColor=#d5e8d4;strokeColor=#82b366;verticalAlign=bottom;horizontal=1;labelPosition=center;verticalLabelPosition=top;align=center;fontStyle=1" vertex="1" parent="1">
          <mxGeometry x="630" y="120" width="40" height="40" as="geometry" />
        </mxCell>
        <mxCell id="S3Wq46lckrl9Il4yZRkf-16" value="" style="edgeStyle=orthogonalEdgeStyle;rounded=1;orthogonalLoop=1;jettySize=auto;html=1;curved=0;dashed=1;dashPattern=1 4;" edge="1" parent="1" source="S3Wq46lckrl9Il4yZRkf-14" target="S3Wq46lckrl9Il4yZRkf-15">
          <mxGeometry relative="1" as="geometry" />
        </mxCell>
        <mxCell id="S3Wq46lckrl9Il4yZRkf-27" style="edgeStyle=orthogonalEdgeStyle;rounded=1;orthogonalLoop=1;jettySize=auto;html=1;entryX=0;entryY=0.5;entryDx=0;entryDy=0;curved=0;dashed=1;dashPattern=1 4;" edge="1" parent="1" source="S3Wq46lckrl9Il4yZRkf-14" target="S3Wq46lckrl9Il4yZRkf-26">
          <mxGeometry relative="1" as="geometry" />
        </mxCell>
        <mxCell id="S3Wq46lckrl9Il4yZRkf-14" value="" style="ellipse;whiteSpace=wrap;html=1;aspect=fixed;fillColor=#d5e8d4;strokeColor=#82b366;verticalAlign=bottom;horizontal=1;labelPosition=center;verticalLabelPosition=top;align=center;fontStyle=1" vertex="1" parent="1">
          <mxGeometry x="80" y="120" width="40" height="40" as="geometry" />
        </mxCell>
        <mxCell id="S3Wq46lckrl9Il4yZRkf-18" value="" style="edgeStyle=orthogonalEdgeStyle;rounded=1;orthogonalLoop=1;jettySize=auto;html=1;curved=0;dashed=1;dashPattern=1 4;" edge="1" parent="1" source="S3Wq46lckrl9Il4yZRkf-15" target="S3Wq46lckrl9Il4yZRkf-17">
          <mxGeometry relative="1" as="geometry" />
        </mxCell>
        <mxCell id="S3Wq46lckrl9Il4yZRkf-15" value="" style="ellipse;whiteSpace=wrap;html=1;aspect=fixed;fillColor=#d5e8d4;strokeColor=#82b366;verticalAlign=bottom;horizontal=1;labelPosition=center;verticalLabelPosition=top;align=center;fontStyle=1" vertex="1" parent="1">
          <mxGeometry x="170" y="120" width="40" height="40" as="geometry" />
        </mxCell>
        <mxCell id="S3Wq46lckrl9Il4yZRkf-19" style="edgeStyle=orthogonalEdgeStyle;rounded=1;orthogonalLoop=1;jettySize=auto;html=1;entryX=0;entryY=0.5;entryDx=0;entryDy=0;curved=0;dashed=1;dashPattern=1 4;" edge="1" parent="1" source="S3Wq46lckrl9Il4yZRkf-17" target="S3Wq46lckrl9Il4yZRkf-2">
          <mxGeometry relative="1" as="geometry" />
        </mxCell>
        <mxCell id="S3Wq46lckrl9Il4yZRkf-17" value="" style="ellipse;whiteSpace=wrap;html=1;aspect=fixed;fillColor=#d5e8d4;strokeColor=#82b366;verticalAlign=bottom;horizontal=1;labelPosition=center;verticalLabelPosition=top;align=center;fontStyle=1" vertex="1" parent="1">
          <mxGeometry x="240" y="120" width="40" height="40" as="geometry" />
        </mxCell>
        <mxCell id="S3Wq46lckrl9Il4yZRkf-23" style="edgeStyle=orthogonalEdgeStyle;rounded=1;orthogonalLoop=1;jettySize=auto;html=1;entryX=0;entryY=0.5;entryDx=0;entryDy=0;curved=0;dashed=1;dashPattern=1 4;" edge="1" parent="1" source="S3Wq46lckrl9Il4yZRkf-2" target="S3Wq46lckrl9Il4yZRkf-22">
          <mxGeometry relative="1" as="geometry" />
        </mxCell>
        <mxCell id="S3Wq46lckrl9Il4yZRkf-2" value="v2.0" style="ellipse;whiteSpace=wrap;html=1;aspect=fixed;fillColor=#dae8fc;strokeColor=#6c8ebf;fontStyle=1;labelPosition=center;verticalLabelPosition=top;align=center;verticalAlign=bottom;" vertex="1" parent="1">
          <mxGeometry x="280" y="40" width="40" height="40" as="geometry" />
        </mxCell>
        <mxCell id="S3Wq46lckrl9Il4yZRkf-24" style="edgeStyle=orthogonalEdgeStyle;rounded=1;orthogonalLoop=1;jettySize=auto;html=1;entryX=0;entryY=0.5;entryDx=0;entryDy=0;curved=0;dashed=1;dashPattern=1 4;" edge="1" parent="1" source="S3Wq46lckrl9Il4yZRkf-22" target="S3Wq46lckrl9Il4yZRkf-4">
          <mxGeometry relative="1" as="geometry" />
        </mxCell>
        <mxCell id="S3Wq46lckrl9Il4yZRkf-22" value="" style="ellipse;whiteSpace=wrap;html=1;aspect=fixed;fillColor=#d5e8d4;strokeColor=#82b366;verticalAlign=bottom;horizontal=1;labelPosition=center;verticalLabelPosition=top;align=center;fontStyle=1" vertex="1" parent="1">
          <mxGeometry x="360" y="120" width="40" height="40" as="geometry" />
        </mxCell>
        <mxCell id="S3Wq46lckrl9Il4yZRkf-1" value="v1.0" style="ellipse;whiteSpace=wrap;html=1;aspect=fixed;fillColor=#dae8fc;strokeColor=#6c8ebf;verticalAlign=bottom;horizontal=1;labelPosition=center;verticalLabelPosition=top;align=center;fontStyle=1" vertex="1" parent="1">
          <mxGeometry x="40" y="40" width="40" height="40" as="geometry" />
        </mxCell>
        <mxCell id="S3Wq46lckrl9Il4yZRkf-25" value="Feature 1" style="rounded=1;whiteSpace=wrap;html=1;fontStyle=1;fillColor=#fff2cc;strokeColor=#d6b656;" vertex="1" parent="1">
          <mxGeometry x="680" y="190" width="120" height="60" as="geometry" />
        </mxCell>
        <mxCell id="S3Wq46lckrl9Il4yZRkf-28" style="edgeStyle=orthogonalEdgeStyle;rounded=1;orthogonalLoop=1;jettySize=auto;html=1;curved=0;dashed=1;dashPattern=1 4;" edge="1" parent="1" source="S3Wq46lckrl9Il4yZRkf-26" target="S3Wq46lckrl9Il4yZRkf-15">
          <mxGeometry relative="1" as="geometry" />
        </mxCell>
        <mxCell id="S3Wq46lckrl9Il4yZRkf-26" value="" style="ellipse;whiteSpace=wrap;html=1;aspect=fixed;fillColor=#fff2cc;strokeColor=#d6b656;verticalAlign=bottom;horizontal=1;labelPosition=center;verticalLabelPosition=top;align=center;fontStyle=1" vertex="1" parent="1">
          <mxGeometry x="120" y="200" width="40" height="40" as="geometry" />
        </mxCell>
        <mxCell id="S3Wq46lckrl9Il4yZRkf-30" value="Feature 2" style="rounded=1;whiteSpace=wrap;html=1;fontStyle=1;fillColor=#e1d5e7;strokeColor=#9673a6;" vertex="1" parent="1">
          <mxGeometry x="680" y="270" width="120" height="60" as="geometry" />
        </mxCell>
        <mxCell id="S3Wq46lckrl9Il4yZRkf-33" value="" style="endArrow=none;dashed=1;html=1;strokeWidth=2;rounded=1;entryX=1;entryY=0.5;entryDx=0;entryDy=0;fillColor=#e1d5e7;strokeColor=#9673a6;curved=0;" edge="1" parent="1" target="S3Wq46lckrl9Il4yZRkf-32">
          <mxGeometry width="50" height="50" relative="1" as="geometry">
            <mxPoint x="40" y="299.58" as="sourcePoint" />
            <mxPoint x="800" y="299.58" as="targetPoint" />
          </mxGeometry>
        </mxCell>
        <mxCell id="S3Wq46lckrl9Il4yZRkf-35" style="edgeStyle=orthogonalEdgeStyle;rounded=1;orthogonalLoop=1;jettySize=auto;html=1;entryX=0.5;entryY=1;entryDx=0;entryDy=0;curved=0;dashed=1;dashPattern=1 4;" edge="1" parent="1" source="S3Wq46lckrl9Il4yZRkf-37" target="S3Wq46lckrl9Il4yZRkf-12">
          <mxGeometry relative="1" as="geometry" />
        </mxCell>
        <mxCell id="S3Wq46lckrl9Il4yZRkf-32" value="" style="ellipse;whiteSpace=wrap;html=1;aspect=fixed;fillColor=#e1d5e7;strokeColor=#9673a6;verticalAlign=bottom;horizontal=1;labelPosition=center;verticalLabelPosition=top;align=center;fontStyle=1" vertex="1" parent="1">
          <mxGeometry x="520" y="280" width="40" height="40" as="geometry" />
        </mxCell>
        <mxCell id="S3Wq46lckrl9Il4yZRkf-38" value="" style="edgeStyle=orthogonalEdgeStyle;rounded=1;orthogonalLoop=1;jettySize=auto;html=1;entryX=0;entryY=0.5;entryDx=0;entryDy=0;curved=0;dashed=1;dashPattern=1 4;" edge="1" parent="1" source="S3Wq46lckrl9Il4yZRkf-32" target="S3Wq46lckrl9Il4yZRkf-37">
          <mxGeometry relative="1" as="geometry">
            <mxPoint x="560" y="300" as="sourcePoint" />
            <mxPoint x="650" y="160" as="targetPoint" />
          </mxGeometry>
        </mxCell>
        <mxCell id="S3Wq46lckrl9Il4yZRkf-37" value="" style="ellipse;whiteSpace=wrap;html=1;aspect=fixed;fillColor=#e1d5e7;strokeColor=#9673a6;verticalAlign=bottom;horizontal=1;labelPosition=center;verticalLabelPosition=top;align=center;fontStyle=1" vertex="1" parent="1">
          <mxGeometry x="580" y="280" width="40" height="40" as="geometry" />
        </mxCell>
      </root>
    </mxGraphModel>
  </diagram>
</mxfile>
